<svg xmlns="http://www.w3.org/2000/svg" width="24" height="24" fill="none" viewBox="0 0 24 24">
    <path fill="#037FF3" d="M12 0c3.183 0 6.235 1.264 8.485 3.515C22.735 5.765 24 8.817 24 12s-1.264 6.235-3.515 8.485C18.235 22.735 15.183 24 12 24s-6.235-1.264-8.485-3.515C1.265 18.235 0 15.183 0 12s1.264-6.235 3.515-8.485C5.765 1.265 8.817 0 12 0zM6.75 11.25c-.199 0-.39.079-.53.22-.141.14-.22.331-.22.53s.079.39.22.53c.14.141.331.22.53.22h8.69l-3.221 3.219c-.07.07-.125.153-.163.244-.037.09-.057.188-.057.287 0 .099.02.196.057.287.038.091.093.174.163.244s.152.125.244.163c.09.038.188.057.287.057.099 0 .196-.02.287-.057.091-.038.174-.093.244-.163l4.5-4.5c.07-.07.125-.152.163-.244.038-.09.057-.188.057-.287 0-.099-.02-.196-.057-.287-.038-.092-.093-.174-.163-.244l-4.5-4.5c-.07-.07-.152-.125-.244-.163-.09-.038-.188-.057-.287-.057-.099 0-.196.02-.287.057-.091.038-.174.093-.244.163s-.125.153-.163.244C12.02 7.303 12 7.4 12 7.5c0 .099.02.196.057.287.038.091.093.174.163.244l3.22 3.219H6.75z"/>
</svg>
