<svg xmlns="http://www.w3.org/2000/svg" width="72" height="72" fill="none" viewBox="0 0 72 72">
    <g filter="url(#filter0_d)">
        <circle cx="36" cy="32" r="24" fill="#121421"/>
        <path fill="#fff" d="M44.2 29.776V24.4c0-1.32-1.08-2.4-2.4-2.4H27.4c-1.32 0-2.4 1.08-2.4 2.4v14.4c0 1.32 1.08 2.4 2.4 2.4h14.4c1.32 0 2.4-1.08 2.4-2.4v-5.376L49 38.2V25l-4.8 4.776zM34.6 26.8c1.32 0 2.4 1.08 2.4 2.4 0 1.32-1.08 2.4-2.4 2.4-1.32 0-2.4-1.08-2.4-2.4 0-1.32 1.08-2.4 2.4-2.4zm4.8 9.6h-9.6v-.684c0-.972.576-1.836 1.464-2.22 1.052-.46 2.188-.696 3.336-.696 1.148 0 2.284.237 3.336.696.435.186.805.495 1.066.89.26.395.398.857.398 1.33v.684z"/>
    </g>
    <defs>
        <filter id="filter0_d" width="72" height="72" x="0" y="0" color-interpolation-filters="sRGB" filterUnits="userSpaceOnUse">
            <feFlood flood-opacity="0" result="BackgroundImageFix"/>
            <feColorMatrix in="SourceAlpha" values="0 0 0 0 0 0 0 0 0 0 0 0 0 0 0 0 0 0 127 0"/>
            <feOffset dy="4"/>
            <feGaussianBlur stdDeviation="6"/>
            <feColorMatrix values="0 0 0 0 0 0 0 0 0 0 0 0 0 0 0 0 0 0 0.2 0"/>
            <feBlend in2="BackgroundImageFix" result="effect1_dropShadow"/>
            <feBlend in="SourceGraphic" in2="effect1_dropShadow" result="shape"/>
        </filter>
    </defs>
</svg>
