<svg xmlns="http://www.w3.org/2000/svg" width="18" height="18" fill="none" viewBox="0 0 18 18">
    <path fill="#2A2B37" d="M9 0C4.037 0 0 4.037 0 9s4.037 9 9 9 9-4.037 9-9-4.037-9-9-9zm3.259 11.28c.067.064.12.14.157.225.037.084.057.175.058.268.001.092-.016.184-.05.27-.036.085-.087.163-.153.228-.065.066-.143.117-.228.152-.086.035-.178.052-.27.051-.092-.001-.184-.02-.268-.058-.085-.037-.162-.09-.225-.157L9 9.979l-2.28 2.28c-.13.124-.305.192-.486.19-.18-.002-.353-.075-.48-.203-.128-.127-.2-.3-.203-.48-.002-.181.066-.355.19-.486L8.021 9 5.74 6.72c-.124-.13-.192-.305-.19-.486.002-.18.075-.353.203-.48.127-.128.3-.2.48-.203.181-.002.355.066.486.19L9 8.021l2.28-2.28c.13-.124.305-.192.486-.19.18.002.353.075.48.203.128.127.2.3.203.48.002.181-.066.355-.19.486L9.979 9l2.28 2.28z"/>
</svg>
