<svg xmlns="http://www.w3.org/2000/svg" width="48" height="48" fill="none" viewBox="0 0 48 48">
    <path fill="#9098B1" d="M24 0C10.767 0 0 10.767 0 24s10.767 24 24 24 24-10.767 24-24S37.233 0 24 0zm8.69 30.08c.178.17.321.373.42.599.098.226.15.469.154.715.003.247-.043.491-.136.72-.093.228-.23.435-.404.61-.175.174-.382.311-.61.404-.229.093-.473.14-.72.136-.246-.003-.49-.056-.715-.154-.226-.099-.43-.242-.6-.42L24 26.61l-6.08 6.079c-.349.331-.813.513-1.295.507-.481-.006-.941-.2-1.282-.54-.34-.34-.534-.8-.54-1.282-.006-.482.176-.946.507-1.295L21.39 24l-6.079-6.08c-.331-.349-.513-.813-.507-1.295.006-.481.2-.941.54-1.282.34-.34.8-.534 1.282-.54.482-.006.946.176 1.295.507L24 21.39l6.08-6.079c.349-.331.813-.513 1.295-.507.481.006.941.2 1.282.54.34.34.534.8.54 1.282.006.482-.176.946-.507 1.295L26.61 24l6.079 6.08z"/>
</svg>
