<svg xmlns="http://www.w3.org/2000/svg" width="24" height="24" fill="none" viewBox="0 0 24 24">
    <path fill="#fff" d="M21.613 17.79c.576-1.075.88-2.275.887-3.495.007-1.22-.284-2.423-.847-3.505-.563-1.082-1.382-2.01-2.385-2.705-1.003-.695-2.16-1.134-3.371-1.28-.398-.931-.98-1.772-1.712-2.472s-1.597-1.244-2.545-1.6c-.948-.357-1.958-.518-2.97-.473-1.01.044-2.003.293-2.916.731-.913.438-1.727 1.057-2.394 1.818-.668.762-1.174 1.65-1.489 2.613-.314.962-.43 1.978-.342 2.987.088 1.009.38 1.989.858 2.882l-.58 2.03c-.064.224-.067.463-.008.69.058.226.176.433.342.598.165.166.372.284.599.342.226.06.464.056.69-.008l2.03-.58c.82.44 1.717.722 2.642.833.41.957 1.013 1.818 1.772 2.529.76.71 1.66 1.256 2.64 1.6.982.346 2.025.483 3.062.403 1.038-.08 2.047-.374 2.965-.865l2.03.58c.225.064.463.067.69.008.226-.058.433-.176.598-.342.166-.165.284-.372.343-.599.058-.226.055-.465-.009-.69l-.58-2.03zm-1.452-.478c-.052.088-.086.185-.099.287-.013.1-.005.204.023.302l.573 2.007-2.007-.573c-.098-.028-.201-.036-.302-.023-.102.013-.2.047-.287.1-.687.406-1.447.672-2.238.781-.79.11-1.594.06-2.365-.145-.771-.204-1.494-.561-2.125-1.049-.632-.487-1.16-1.096-1.554-1.79 1.027-.106 2.022-.424 2.92-.933.899-.508 1.683-1.198 2.302-2.024.62-.826 1.062-1.772 1.299-2.777.236-1.005.263-2.049.077-3.065.916.217 1.769.646 2.488 1.252.72.607 1.287 1.375 1.656 2.242.368.866.527 1.807.465 2.747-.063.94-.346 1.85-.826 2.66z"/>
</svg>
