<svg xmlns="http://www.w3.org/2000/svg" width="24" height="24" fill="none" viewBox="0 0 24 24">
    <path fill="#fff" d="M10.063 21.972c1.967-.774 1.536-2.906.541-4.254-.983-1.382-2.342-2.332-3.713-3.25-.977-.615-1.85-1.384-2.585-2.276-.31-.364-.94-1.038-.299-1.17.652-.133 1.78.507 2.354.75 1.005.42 2 .907 2.928 1.481l1.116-1.878C8.681 10.236 6.471 9.23 4.416 8.933c-1.171-.177-2.409.066-2.807 1.337-.353 1.094.21 2.199.851 3.06 1.514 2.023 3.868 2.995 5.625 4.741.375.365.829.796 1.05 1.304.232.486.176.52-.343.52-1.37 0-3.083-1.072-4.2-1.78l-1.115 1.879c1.69 1.039 4.52 2.663 6.586 1.978zM22.318 4.733c.243-.243.243-.64 0-.873L20.88 2.424c-.116-.112-.27-.174-.43-.174-.162 0-.316.062-.432.174L18.892 3.55l2.299 2.298 1.127-1.116zM11.444 11v2.298h2.299l6.796-6.796-2.299-2.298-6.796 6.796z"/>
</svg>
