<svg xmlns="http://www.w3.org/2000/svg" width="16" height="16" fill="none" viewBox="0 0 16 16">
    <path stroke="#9098B1" stroke-linecap="round" stroke-linejoin="round" d="M10 5l-5.207 5.293c-.188.188-.293.442-.293.707 0 .265.105.52.293.707.187.188.442.293.707.293.265 0 .52-.105.707-.293l6.207-6.293c.186-.186.333-.406.433-.649.1-.243.153-.503.153-.765 0-.263-.052-.523-.153-.766-.1-.242-.247-.463-.433-.648-.186-.186-.406-.333-.649-.434C11.522 2.052 11.262 2 11 2c-.263 0-.523.051-.766.152-.242.1-.463.248-.649.434L3.38 8.879C2.816 9.44 2.5 10.204 2.5 11s.316 1.559.879 2.121c.562.563 1.325.88 2.121.88s1.559-.317 2.121-.88L12.75 8"/>
</svg>
