<svg xmlns="http://www.w3.org/2000/svg" width="24" height="24" fill="none" viewBox="0 0 24 24">
    <path fill="#fff" d="M12 23.143c2.955 0 5.79-1.174 7.88-3.264 2.089-2.09 3.263-4.924 3.263-7.879 0-2.955-1.174-5.79-3.264-7.88C17.79 2.032 14.955.858 12 .858c-2.955 0-5.79 1.174-7.88 3.264C2.032 6.21.858 9.045.858 12c0 2.955 1.174 5.79 3.264 7.88 2.09 2.089 4.924 3.263 7.879 3.263zm1.295-13.11l-1.393 6.554c-.097.473.04.742.424.742.27 0 .678-.097.955-.343l-.122.58c-.4.482-1.282.833-2.04.833-.98 0-1.396-.588-1.126-1.837l1.028-4.83c.089-.409.008-.556-.4-.655l-.628-.113.114-.53 3.19-.4h-.002zM12 8.518c-.37 0-.724-.147-.985-.408s-.408-.616-.408-.985c0-.37.147-.724.408-.985s.616-.408.985-.408c.37 0 .724.147.985.408s.408.616.408.985c0 .37-.147.724-.408.985s-.616.408-.985.408z"/>
</svg>
