<svg xmlns="http://www.w3.org/2000/svg" width="24" height="24" fill="none" viewBox="0 0 24 24">
    <path fill="#f00" d="M19.926 11.021h-1.798c0 .783-.17 1.513-.455 2.169l1.301 1.3c.593-1.036.952-2.21.952-3.469zm-4.252.18c0-.064.02-.117.02-.18V4.674c0-1.756-1.417-3.174-3.173-3.174S9.347 2.918 9.347 4.674v.19l6.327 6.337zM4.344 2.558L3 3.9l6.358 6.358v.762c0 1.756 1.407 3.174 3.163 3.174.233 0 .465-.032.688-.085l1.756 1.756c-.751.35-1.587.55-2.444.55-2.92 0-5.607-2.221-5.607-5.395H5.116c0 3.607 2.877 6.59 6.347 7.11V21.6h2.116v-3.47c.963-.137 1.872-.476 2.687-.952l4.433 4.422 1.343-1.344L4.344 2.558z"/>
</svg>
