<svg xmlns="http://www.w3.org/2000/svg" width="24" height="24" fill="none" viewBox="0 0 24 24">
    <path fill="#fff" d="M10.636 2.643H3.325c-.377 0-.682.305-.682.682v7.311c0 .377.305.682.682.682h7.311c.377 0 .682-.305.682-.682V3.325c0-.377-.305-.682-.682-.682zM20.675 2.643h-7.311c-.377 0-.682.305-.682.682v7.311c0 .377.305.682.682.682h7.311c.377 0 .682-.305.682-.682V3.325c0-.377-.305-.682-.682-.682zM10.636 12.682H3.325c-.377 0-.682.305-.682.682v7.311c0 .377.305.682.682.682h7.311c.377 0 .682-.305.682-.682v-7.311c0-.377-.305-.682-.682-.682zM20.675 12.682h-7.311c-.377 0-.682.305-.682.682v7.311c0 .377.305.682.682.682h7.311c.377 0 .682-.305.682-.682v-7.311c0-.377-.305-.682-.682-.682z"/>
</svg>
