<svg xmlns="http://www.w3.org/2000/svg" width="24" height="24" fill="none" viewBox="0 0 24 24">
    <path fill="#fff" fill-rule="evenodd" d="M16.67 13.13C18.04 14.06 19 15.32 19 17v3h4v-3c0-2.18-3.57-3.47-6.33-3.87z" clip-rule="evenodd"/>
    <path fill="#fff" d="M9 12c2.21 0 4-1.79 4-4s-1.79-4-4-4-4 1.79-4 4 1.79 4 4 4z"/>
    <path fill="#fff" fill-rule="evenodd" d="M15 12c2.21 0 4-1.79 4-4s-1.79-4-4-4c-.47 0-.91.1-1.33.24C14.53 5.304 15 6.631 15 8c0 1.369-.47 2.696-1.33 3.76.42.14.86.24 1.33.24zm-6 1c-2.67 0-8 1.34-8 4v3h16v-3c0-2.66-5.33-4-8-4z" clip-rule="evenodd"/>
</svg>
