<svg xmlns="http://www.w3.org/2000/svg" width="24" height="24" fill="none" viewBox="0 0 24 24">
    <path stroke="#fff" d="M22.75 12c0 5.937-4.813 10.75-10.75 10.75S1.25 17.937 1.25 12 6.063 1.25 12 1.25 22.75 6.063 22.75 12z"/>
    <path fill="#fff" fill-rule="evenodd" d="M12 21c4.97 0 9-4.03 9-9s-4.03-9-9-9-9 4.03-9 9 4.03 9 9 9zm-4.307-8.937h.7l.8 1.562h.944v-.041l-.923-1.743c.256-.115.446-.27.571-.463.127-.195.19-.438.19-.73 0-.41-.136-.727-.41-.952-.273-.224-.662-.337-1.166-.337H6.814v4.266h.88v-1.562zm.71-.711h-.71v-1.28H8.4c.237 0 .412.057.525.172.115.115.173.274.173.475 0 .197-.06.352-.182.466-.121.11-.292.167-.513.167zm3.122.424h1.688v-.688h-1.688V10.07H13.5V9.36h-2.854v4.266h2.86v-.706h-1.98v-1.143zm5.335 1.512c.307-.264.477-.625.51-1.084h-.879c-.02.26-.096.452-.231.577-.133.123-.335.185-.607.185-.3 0-.521-.107-.662-.32-.139-.212-.208-.55-.208-1.01v-.322c.004-.442.078-.767.223-.976.146-.211.366-.316.659-.316.27 0 .47.062.6.187.133.123.21.322.232.598h.879c-.047-.477-.22-.847-.521-1.11-.301-.264-.698-.396-1.19-.396-.355 0-.668.084-.938.252-.267.166-.473.405-.618.717-.144.313-.216.674-.216 1.085v.26c0 .643.156 1.149.468 1.518.315.367.745.55 1.292.55.5 0 .903-.131 1.207-.395z" clip-rule="evenodd"/>
</svg>
