<svg xmlns="http://www.w3.org/2000/svg" width="24" height="24" fill="none" viewBox="0 0 24 24">
    <path fill="#fff" d="M12.182 1.714c.753.009 1.502.096 2.238.26.156.035.298.118.405.237.107.12.174.269.191.428l.175 1.566c.024.22.1.433.222.619.121.186.285.34.477.452.192.111.408.176.63.189.221.012.443-.027.647-.116l1.436-.63c.146-.064.308-.082.464-.05.157.032.299.112.408.228 1.038 1.109 1.81 2.438 2.26 3.889.047.152.046.315-.004.467-.05.151-.146.284-.274.379l-1.274.939c-.179.131-.324.303-.425.502-.1.198-.152.417-.152.64 0 .221.052.44.152.639.1.198.246.37.425.501l1.275.939c.129.094.225.227.275.379.05.151.051.315.004.468-.45 1.45-1.222 2.78-2.26 3.888-.109.116-.25.196-.406.228-.156.032-.318.015-.464-.049l-1.442-.632c-.204-.09-.425-.13-.647-.117-.222.012-.438.077-.63.188s-.356.266-.477.452-.197.398-.221.62l-.174 1.564c-.017.158-.083.306-.188.425-.105.118-.244.202-.398.238-1.485.354-3.033.354-4.518 0-.154-.036-.293-.12-.398-.238-.105-.12-.171-.267-.189-.425l-.172-1.563c-.025-.22-.101-.431-.223-.617-.122-.185-.285-.34-.477-.45-.192-.11-.408-.175-.63-.187-.22-.012-.442.027-.645.116l-1.442.632c-.145.064-.307.08-.463.048-.156-.032-.298-.112-.407-.228-1.038-1.11-1.81-2.44-2.26-3.892-.047-.153-.046-.317.004-.468.05-.152.146-.285.275-.38l1.274-.939c.18-.131.325-.303.426-.501.1-.198.153-.418.153-.64 0-.222-.053-.441-.153-.64-.1-.198-.246-.37-.426-.501l-1.274-.937c-.129-.095-.225-.228-.274-.38-.05-.151-.052-.315-.004-.467.45-1.45 1.222-2.78 2.26-3.889.109-.116.251-.196.407-.228.156-.032.319-.014.464.05l1.436.63c.204.089.426.128.648.115.222-.012.438-.077.63-.189.193-.111.357-.266.478-.453.122-.186.198-.398.223-.619l.174-1.565c.018-.16.085-.31.192-.429.108-.12.25-.202.406-.237.736-.163 1.487-.25 2.257-.259zm-.012 6.922c-.816 0-1.598.324-2.175.9-.577.578-.901 1.36-.901 2.176 0 .816.324 1.598.9 2.175.578.577 1.36.901 2.176.901.816 0 1.598-.324 2.175-.9.577-.578.901-1.36.901-2.176 0-.816-.324-1.598-.9-2.175-.578-.577-1.36-.901-2.176-.901z"/>
</svg>
