<svg xmlns="http://www.w3.org/2000/svg" width="24" height="24" fill="none" viewBox="0 0 24 24">
    <path fill="#fff" d="M20.817 11.186c-.236-1.152-.696-2.246-1.355-3.219-.647-.958-1.472-1.783-2.43-2.43-.974-.659-2.067-1.12-3.219-1.355-.605-.123-1.22-.183-1.838-.18V2L8 5l3.975 3V6.002c.484-.002.968.044 1.435.14.895.183 1.745.541 2.502 1.053.746.503 1.389 1.146 1.892 1.892.781 1.155 1.198 2.518 1.196 3.913 0 .936-.187 1.862-.55 2.725-.177.415-.392.813-.644 1.188-.253.372-.54.72-.858 1.039-.968.966-2.197 1.629-3.536 1.907-.931.188-1.89.188-2.822 0-.895-.184-1.746-.542-2.503-1.054-.746-.503-1.387-1.145-1.89-1.89C5.417 15.759 5 14.395 5 13H3c.001 1.794.537 3.546 1.539 5.034.648.956 1.472 1.78 2.428 2.428C8.453 21.468 10.207 22.003 12 22c.61 0 1.217-.061 1.814-.183 1.15-.238 2.244-.698 3.218-1.355.478-.322.924-.69 1.331-1.099.407-.409.776-.855 1.1-1.332C20.468 16.546 21.003 14.793 21 13c0-.61-.061-1.217-.183-1.814z"/>
</svg>
