<svg xmlns="http://www.w3.org/2000/svg" width="24" height="24" fill="none" viewBox="0 0 24 24">
    <path fill="#fff" d="M3.183 11.186c.236-1.152.696-2.246 1.355-3.219.647-.958 1.472-1.783 2.43-2.43.974-.659 2.067-1.12 3.219-1.355.605-.123 1.22-.183 1.838-.18V2L16 5l-3.975 3V6.002c-.484-.002-.968.044-1.435.14-.895.183-1.745.541-2.502 1.053-.746.503-1.389 1.146-1.892 1.892C5.415 10.242 4.998 11.605 5 13c0 .936.187 1.862.55 2.725.176.415.392.813.644 1.188.253.372.54.72.858 1.039.968.966 2.197 1.629 3.536 1.907.931.188 1.89.188 2.822 0 .895-.184 1.746-.542 2.503-1.054.745-.503 1.387-1.145 1.89-1.89C18.583 15.759 19 14.395 19 13h2c-.001 1.794-.537 3.546-1.539 5.034-.648.956-1.472 1.78-2.428 2.428C15.547 21.468 13.793 22.003 12 22c-.61 0-1.217-.061-1.814-.183-1.15-.238-2.244-.698-3.218-1.355-.478-.322-.924-.69-1.331-1.099-.408-.409-.776-.855-1.1-1.332C3.532 16.546 2.997 14.793 3 13c0-.61.061-1.217.183-1.814z"/>
    <path fill="#fff" d="M14.263 10.263H15.863V18.262999999999998H14.263z" transform="rotate(45 14.263 10.263)"/>
    <path fill="#fff" d="M9.737 10.263H17.737000000000002V11.863H9.737z" transform="rotate(45 9.737 10.263)"/>
</svg>
