<svg xmlns="http://www.w3.org/2000/svg" width="24" height="24" fill="none" viewBox="0 0 24 24">
    <path fill="#fff" d="M20.418 9.338l-5.396-.82-2.412-5.122c-.066-.14-.174-.254-.308-.323-.336-.173-.744-.028-.912.323L8.978 8.517l-5.396.821c-.149.023-.285.096-.39.207-.125.136-.194.318-.192.507.002.19.076.37.206.502l3.904 3.985-.923 5.629c-.021.13-.007.265.04.388.048.123.128.23.23.308.103.078.225.125.351.134.127.01.253-.018.366-.08L12 18.26l4.826 2.657c.132.073.285.098.432.071.37-.067.618-.434.555-.821l-.923-5.629 3.904-3.986c.107-.109.177-.251.198-.407.057-.39-.202-.75-.574-.808z"/>
</svg>
