<svg xmlns="http://www.w3.org/2000/svg" width="24" height="24" fill="none" viewBox="0 0 24 24">
    <path fill="#fff" d="M7 8.362h2.675c0-1.653.928-2.93 2.756-2.93 1.388 0 2.66.726 2.66 2.473 0 1.344-.757 1.962-1.955 2.902-1.363 1.035-2.444 2.243-2.367 4.206l.014.98h2.65v-.752c0-1.52.552-1.962 2.046-3.145C16.713 11.116 18 10.028 18 7.744 18 4.545 15.414 3 12.583 3 9.896 3 6.937 4.37 7.002 8.362H7zm3.165 11.676c0 1.128.862 1.962 2.047 1.962 1.234 0 2.084-.834 2.084-1.962 0-1.169-.852-1.99-2.086-1.99-1.183 0-2.045.821-2.045 1.99z"/>
</svg>
