<svg xmlns="http://www.w3.org/2000/svg" width="24" height="24" fill="none" viewBox="0 0 24 24">
    <path fill="#FF6262" d="M12 2.25c-5.376 0-9.75 4.374-9.75 9.75s4.374 9.75 9.75 9.75 9.75-4.374 9.75-9.75S17.376 2.25 12 2.25zm3.53 12.22c.073.069.13.152.17.243.04.092.062.19.064.291 0 .1-.018.2-.056.292-.037.093-.093.177-.164.248-.07.07-.155.127-.248.164-.093.038-.192.057-.292.056-.1-.002-.199-.023-.29-.063-.092-.04-.175-.098-.244-.17L12 13.06l-2.47 2.47c-.142.134-.33.208-.526.205-.196-.002-.382-.08-.52-.22-.139-.137-.218-.324-.22-.52-.003-.196.071-.384.206-.526L10.94 12 8.47 9.53c-.135-.142-.209-.33-.206-.526.002-.196.081-.382.22-.52.138-.139.324-.218.52-.22.196-.003.384.071.526.206L12 10.94l2.47-2.47c.142-.135.33-.209.526-.206.196.002.383.081.52.22.14.138.218.324.22.52.003.196-.071.384-.206.526L13.06 12l2.47 2.47z"/>
</svg>
