<svg xmlns="http://www.w3.org/2000/svg" width="24" height="24" fill="none" viewBox="0 0 24 24">
    <path fill="#fff" d="M9.445 15.734H5.01c-.14 0-.255-.114-.255-.254V8.968c0-.14.114-.255.255-.255h4.6c-.017-.149-.026-.29-.026-.438 0-.457.062-.896.176-1.317h-4.75C3.904 6.958 3 7.862 3 8.968v6.52c0 1.106.904 2.01 2.01 2.01h3.188l1.247-1.764zM14.44 11.513l-.517-.816-.273.377-1.027 1.44-2.3 3.22-1.256 1.756L6.556 21h13.83l-4.68-7.46-1.265-2.027zm2.775 7.732H9.972l1.255-1.755 1.256-1.756 1.053-1.474.29-.413 1.37 2.186 2.02 3.212z"/>
    <path fill="#fff" d="M11.92 11.882l1.055-1.484c-.37-.482-.624-1.053-.703-1.685-.026-.149-.053-.29-.053-.438 0-.466.097-.913.264-1.317.527-1.281 1.782-2.194 3.248-2.194 1.941 0 3.513 1.571 3.513 3.51 0 1.94-1.572 3.511-3.512 3.511-.053 0-.106-.009-.159-.018l1.124 1.677C19.147 12.987 21 10.846 21 8.266 21 5.36 18.638 3 15.732 3c-2.45 0-4.514 1.676-5.093 3.95-.114.43-.176.868-.176 1.324 0 .15.009.29.027.44.096 1.228.632 2.325 1.43 3.168z"/>
</svg>
