<svg xmlns="http://www.w3.org/2000/svg" width="24" height="24" fill="none" viewBox="0 0 24 24">
    <path fill="#fff" d="M21.985 10.753l-.694-7.326c-.035-.38-.338-.68-.718-.718l-7.326-.693h-.01c-.074 0-.133.023-.178.068L2.085 13.059c-.022.022-.04.048-.051.076-.012.029-.018.059-.018.09 0 .03.006.06.018.09.012.027.029.053.05.075l8.527 8.526c.045.045.103.068.167.068.063 0 .122-.023.166-.068L21.92 10.941c.047-.05.07-.118.066-.188zm-11.21 8.81l-6.338-6.337 9.368-9.368 5.789.548.548 5.79-9.368 9.367zM15.937 6c-1.137 0-2.063.926-2.063 2.063 0 1.136.926 2.062 2.063 2.062 1.136 0 2.062-.926 2.062-2.063C18 6.926 17.074 6 15.938 6zm0 2.813c-.415 0-.75-.336-.75-.75 0-.415.335-.75.75-.75.414 0 .75.335.75.75 0 .414-.336.75-.75.75z"/>
</svg>
