<svg xmlns="http://www.w3.org/2000/svg" width="24" height="24" fill="none" viewBox="0 0 24 24">
    <path fill="#3C4456" d="M12.444 9.611c-1.536 0-2.833 1.298-2.833 2.833 0 1.536 1.297 2.834 2.833 2.834 1.536 0 2.833-1.298 2.833-2.834 0-1.535-1.297-2.833-2.833-2.833z"/>
    <path fill="#3C4456" d="M20 5.833h-2.442L15 3.277c-.087-.088-.192-.158-.306-.205-.115-.048-.238-.072-.362-.072h-3.777c-.124 0-.247.024-.362.072-.115.047-.219.117-.306.205L7.33 5.833H4.89C3.847 5.833 3 6.681 3 7.723V18.11C3 19.153 3.847 20 4.889 20H20c1.042 0 1.889-.847 1.889-1.889V7.722c0-1.041-.847-1.889-1.889-1.889zm-7.556 11.334c-2.559 0-4.722-2.163-4.722-4.723 0-2.559 2.163-4.722 4.722-4.722 2.56 0 4.723 2.163 4.723 4.722 0 2.56-2.163 4.723-4.723 4.723z"/>
</svg>
