<svg id="Capa_1" enable-background="new 0 0 512 512" height="24" viewBox="0 0 512 512" width="24" xmlns="http://www.w3.org/2000/svg"><g><path d="m420.879 0h-319.343c-14.888 0-27 12.112-27 27v37.821h-16.065c-8.284 0-15 6.716-15 15s6.716 15 15 15h16.065v58.089h-16.065c-8.284 0-15 6.716-15 15s6.716 15 15 15h16.065v58.09h-16.065c-8.284 0-15 6.716-15 15s6.716 15 15 15h16.065v58.09h-16.065c-8.284 0-15 6.716-15 15s6.716 15 15 15h16.065v58.089h-16.065c-8.284 0-15 6.716-15 15s6.716 15 15 15h16.065v37.821c0 14.888 12.112 27 27 27h319.343c26.274 0 47.65-21.375 47.65-47.65v-416.7c0-26.275-21.375-47.65-47.65-47.65zm17.65 464.35c0 9.732-7.917 17.65-17.65 17.65h-316.343v-34.821h16.065c8.284 0 15-6.716 15-15s-6.716-15-15-15h-16.065v-58.089h16.065c8.284 0 15-6.716 15-15s-6.716-15-15-15h-16.065v-58.09h16.065c8.284 0 15-6.716 15-15s-6.716-15-15-15h-16.065v-58.09h16.065c8.284 0 15-6.716 15-15s-6.716-15-15-15h-16.065v-58.089h16.065c8.284 0 15-6.716 15-15s-6.716-15-15-15h-16.065v-34.821h316.343c9.732 0 17.65 7.917 17.65 17.65z"/><path d="m378.563 417.179h-71.554c-8.284 0-15 6.716-15 15s6.716 15 15 15h71.554c8.284 0 15-6.716 15-15s-6.716-15-15-15z"/><path d="m378.563 64.821h-183.356c-8.284 0-15 6.716-15 15v81.392c0 8.284 6.716 15 15 15h183.356c8.284 0 15-6.716 15-15v-81.392c0-8.284-6.716-15-15-15zm-15 81.392h-153.356v-51.392h153.356z"/></g></svg>