<svg xmlns="http://www.w3.org/2000/svg" width="24" height="24" fill="none" viewBox="0 0 24 24">
    <path fill="#3C4456" d="M19.182 11.098l-8.132 8.02c-1.562 1.542-4.094 1.542-5.657 0-1.562-1.541-1.562-4.038 0-5.579l8.84-8.717c.975-.963 2.559-.963 3.535 0 .976.962.976 2.524 0 3.487l-7.425 7.322c-.389.384-1.025.384-1.414 0-.389-.383-.389-1.01 0-1.395l6.717-6.625-1.06-1.046-6.718 6.625c-.976.963-.976 2.525 0 3.487.976.963 2.56.963 3.536 0l7.424-7.322c1.563-1.541 1.563-4.038 0-5.58-1.562-1.54-4.094-1.54-5.656 0l-8.84 8.718c-2.149 2.12-2.149 5.551 0 7.671 2.15 2.12 5.63 2.12 7.779 0l8.132-8.02-1.061-1.046z"/>
</svg>
