<svg xmlns="http://www.w3.org/2000/svg" width="24" height="24" fill="none" viewBox="0 0 24 24">
    <path fill="#3C4456" d="M2 5.346L3.25 4.14l16.827 16.644L18.856 22l-1.923-1.9H4.693c-.51 0-1-.2-1.36-.556-.361-.357-.564-.84-.564-1.344V6.8c0-.209.039-.409.096-.598L2 5.346zM7.577 4.9L9.5 3h5.77l1.922 1.9h2.885c.51 0 1 .2 1.36.556.36.357.563.84.563 1.344v11.4c0 .57-.25 1.073-.654 1.425l-4.798-4.75c.414-.694.644-1.51.644-2.375 0-1.26-.506-2.468-1.408-3.359-.901-.89-2.124-1.391-3.4-1.391-.874 0-1.701.228-2.403.636L6.442 4.9h1.135zm0 7.6c0 1.26.506 2.468 1.408 3.359.902.89 2.125 1.391 3.4 1.391.48 0 .99-.076 1.442-.218l-1.712-1.682c-.669-.07-1.293-.366-1.769-.836s-.774-1.087-.846-1.748l-1.702-1.691c-.144.447-.221.95-.221 1.425zm4.808-2.85c.765 0 1.498.3 2.04.835.54.534.844 1.26.844 2.015 0 .323-.055.645-.163.95l-3.683-3.638c.309-.108.634-.162.962-.162z"/>
</svg>
