<svg xmlns="http://www.w3.org/2000/svg" width="24" height="24" fill="none" viewBox="0 0 24 24">
    <path fill="#fff" d="M10.22 6.65c.653-.514 1.462-.827 2.36-.827 2.107 0 3.822 1.707 3.822 3.823 0 .897-.313 1.707-.827 2.36l2.717 2.717c1.202-1.35 1.933-3.118 1.933-5.068C20.217 5.422 16.795 2 12.58 2c-1.95 0-3.718.731-5.068 1.933L10.22 6.65z"/>
    <path fill="#fff" d="M12.579 7.538c-.418 0-.81.122-1.132.34l2.9 2.9c.209-.331.34-.714.34-1.132-.01-1.167-.95-2.108-2.108-2.108zM20.582 19.791L4.385 3.602 3 4.987l2.308 2.308c-.235.74-.366 1.524-.366 2.342 0 4.215 3.422 7.637 7.637 7.637.819 0 1.602-.13 2.343-.366l.88.88c-1.002.444-2.09.68-3.223.68-1.933 0-3.762-.68-5.216-1.934l-2.055 4.528c-.079.183.052.383.252.383H19.46l.148.149L21 20.2l-.418-.409zM9.026 11.013l2.177 2.177c-1.001-.392-1.785-1.175-2.177-2.177z"/>
</svg>
