<svg xmlns="http://www.w3.org/2000/svg" width="33" height="29" fill="none" viewBox="0 0 33 29">
    <path fill="#4B4C4C" d="M33 26.929c0 .56-.199 1.046-.596 1.456-.398.41-.886.615-1.467.615H2.063c-.58 0-1.068-.205-1.466-.615C.2 27.975 0 27.49 0 26.929c0-.367.097-.712.29-1.036L14.437 2.07c.172-.388.296-.647.371-.776.075-.13.204-.33.387-.6.182-.269.376-.452.58-.55C15.979.05 16.22 0 16.5 0c.365 0 .682.108.95.324.27.215.473.447.613.696.14.248.306.598.5 1.051L32.71 25.893c.193.323.29.669.29 1.036zM18.562 10.357c0-.582-.198-1.073-.596-1.473-.397-.399-.886-.598-1.466-.598s-1.069.2-1.466.598c-.398.4-.597.89-.597 1.473v6.214c0 .561.205 1.047.613 1.457.408.41.891.615 1.45.615.559 0 1.042-.205 1.45-.615.408-.41.613-.896.613-1.457v-6.214zm-2.078 10.357c-.57 0-1.053.2-1.45.6-.398.398-.597.884-.597 1.456 0 .571.205 1.062.613 1.472.408.41.891.615 1.45.615.559 0 1.042-.205 1.45-.615.408-.41.613-.9.613-1.473 0-.571-.205-1.057-.613-1.456-.408-.4-.897-.599-1.466-.599z"/>
</svg>
