<svg xmlns="http://www.w3.org/2000/svg" width="24" height="24" fill="none" viewBox="0 0 24 24">
    <path fill="#fff" d="M19 11.947h-1.7c0 .818-.16 1.58-.43 2.266l1.23 1.36c.56-1.084.9-2.31.9-3.626zm-4.02.188c0-.066.02-.121.02-.188V5.316C15 3.48 13.66 2 12 2S9 3.481 9 5.316v.199l5.98 6.62zM4.27 3.105L3 4.51l6.01 6.643v.795c0 1.835 1.33 3.316 2.99 3.316.22 0 .44-.033.65-.088l1.66 1.834c-.71.365-1.5.575-2.31.575-2.76 0-5.3-2.32-5.3-5.637H5c0 3.77 2.72 6.886 6 7.428V22h2v-2.625c.91-.144 1.77-.498 2.54-.995l3.19 3.524L20 20.5 4.27 3.105z"/>
</svg>
