<svg xmlns="http://www.w3.org/2000/svg" width="24" height="24" fill="none" viewBox="0 0 24 24">
    <path fill="#fff" d="M11.659 17.317c4.226 0 7.658-3.432 7.658-7.658C19.317 5.432 15.885 2 11.658 2 7.433 2 4 5.432 4 9.659c0 4.226 3.432 7.658 7.659 7.658zm0-11.483c2.113 0 3.833 1.711 3.833 3.833s-1.711 3.834-3.834 3.834c-2.121 0-3.833-1.712-3.833-3.834s1.72-3.833 3.833-3.833z"/>
    <path fill="#fff" d="M11.658 11.763c1.163 0 2.105-.942 2.105-2.104 0-1.163-.942-2.105-2.105-2.105-1.162 0-2.104.942-2.104 2.105 0 1.162.942 2.104 2.104 2.104zM16.89 16.575c-1.458 1.257-3.292 1.939-5.23 1.939-1.94 0-3.773-.682-5.232-1.94l-2.06 4.542c-.08.183.052.384.253.384h14.094c.201 0 .332-.21.253-.384l-2.078-4.541z"/>
</svg>
