<?xml version="1.0" encoding="iso-8859-1"?>
<!-- Generator: Adobe Illustrator 19.0.0, SVG Export Plug-In . SVG Version: 6.00 Build 0)  -->
<svg version="1.1" id="Capa_1" xmlns="http://www.w3.org/2000/svg" xmlns:xlink="http://www.w3.org/1999/xlink" x="0px" y="0px"
	 viewBox="0 0 512.005 512.005" style="enable-background:new 0 0 512.005 512.005;" xml:space="preserve" width="24" height="24">
<g>
	<g>
		<path d="M440.888,64.609l-181.333-64c-2.292-0.813-4.813-0.813-7.104,0l-181.333,64c-4.26,1.51-7.115,5.542-7.115,10.063v128
			c0,165.646,24.563,226.188,187.198,308.188c1.51,0.76,3.156,1.146,4.802,1.146s3.292-0.385,4.802-1.146
			c162.635-82,187.198-142.542,187.198-308.188v-128C448.003,70.151,445.148,66.12,440.888,64.609z M260.992,462.766
			c-3.281,1.729-7.385,1.594-10.49-0.292c-3.188-1.917-5.167-5.417-5.167-9.135v-176c0-5.896-4.771-10.667-10.667-10.667H118.367
			c-5.719,0-10.396-4.469-10.656-10.177c-0.74-16.292-1.042-34-1.042-53.823v-97.813c0-4.51,2.865-8.552,7.115-10.052
			l138.688-48.948c1.125-0.406,2.313-0.604,3.531-0.604c2.219,0,4.354,0.677,6.156,1.958c2.823,2,4.51,5.25,4.51,8.708v178.75
			c0,5.896,4.771,10.667,10.667,10.667h116.302c2.906,0,5.708,1.198,7.708,3.281c2,2.104,3.073,4.979,2.948,7.875
			C399.367,364.078,371.242,404.568,260.992,462.766z"/>
	</g>
</g>
<g>
</g>
<g>
</g>
<g>
</g>
<g>
</g>
<g>
</g>
<g>
</g>
<g>
</g>
<g>
</g>
<g>
</g>
<g>
</g>
<g>
</g>
<g>
</g>
<g>
</g>
<g>
</g>
<g>
</g>
</svg>
