<svg xmlns="http://www.w3.org/2000/svg" width="24" height="24" fill="none" viewBox="0 0 24 24">
    <path fill="#fff" d="M11.75 19.01H2V4.99h18v4.98c.75.33 1.43.79 2 1.36V5c0-1.1-.9-2-2-2H2C.9 3 0 3.9 0 5v14c0 1.1.9 2 2 2h11.45c-.69-.54-1.27-1.22-1.7-1.99z"/>
    <path fill="#fff" d="M16 15.57c-.05-.11-.16-.19-.28-.19h-1.39c.15-1.58 1.48-2.81 3.1-2.81.51 0 1.01.12 1.45.36.12.07.26.05.36-.05l.83-.83c.06-.07.1-.16.09-.25-.01-.09-.06-.17-.14-.22-.78-.49-1.67-.75-2.59-.75-2.58 0-4.69 2.02-4.85 4.56h-1.42c-.12 0-.23.07-.28.19-.05.11-.02.24.07.33l2.28 2.28c.06.06.14.09.22.09.08 0 .16-.03.22-.09l2.28-2.28c.07-.09.1-.22.05-.34zM23.91 15.47l-2.28-2.28c-.12-.11-.32-.11-.43 0l-2.28 2.28c-.09.09-.11.22-.07.33.05.11.16.19.28.19h1.39c-.15 1.57-1.48 2.81-3.1 2.81-.51 0-1.01-.12-1.45-.36-.12-.06-.26-.04-.36.05l-.83.83c-.07.07-.1.16-.09.25.01.09.06.17.14.22.78.49 1.67.75 2.59.75 2.58 0 4.69-2.02 4.85-4.56h1.42c.12 0 .23-.07.28-.19.05-.1.03-.23-.06-.32z"/>
</svg>
